<svg viewBox="0 0 200 300" xmlns="http://www.w3.org/2000/svg">
  <defs>
    <linearGradient id="ferry-gold" x1="0%" y1="0%" x2="100%" y2="100%">
      <stop offset="0%" stop-color="#e2e8f0"/>
      <stop offset="30%" stop-color="#94a3b8"/>
      <stop offset="60%" stop-color="#64748b"/>
      <stop offset="100%" stop-color="#475569"/>
    </linearGradient>
    <linearGradient id="ferry-gold-light" x1="0%" y1="0%" x2="0%" y2="100%">
      <stop offset="0%" stop-color="#f8fafc"/>
      <stop offset="50%" stop-color="#cbd5e1"/>
      <stop offset="100%" stop-color="#94a3b8"/>
    </linearGradient>
    <linearGradient id="ferry-green" x1="0%" y1="0%" x2="100%" y2="100%">
      <stop offset="0%" stop-color="#1e293b"/>
      <stop offset="50%" stop-color="#0f172a"/>
      <stop offset="100%" stop-color="#020617"/>
    </linearGradient>
    <linearGradient id="ferry-inner" x1="0%" y1="0%" x2="100%" y2="100%">
      <stop offset="0%" stop-color="#334155"/>
      <stop offset="100%" stop-color="#1e293b"/>
    </linearGradient>
    <radialGradient id="ferry-glow" cx="50%" cy="50%" r="50%">
      <stop offset="0%" stop-color="#94a3b8" stop-opacity="0.3"/>
      <stop offset="100%" stop-color="#94a3b8" stop-opacity="0"/>
    </radialGradient>
    <filter id="ferry-shadow" x="-20%" y="-20%" width="140%" height="140%">
      <feDropShadow dx="0" dy="4" stdDeviation="6" flood-color="#000" flood-opacity="0.5"/>
    </filter>
  </defs>

  <rect x="10" y="10" width="180" height="280" rx="8" fill="url(#ferry-green)" stroke="url(#ferry-gold)" stroke-width="4" filter="url(#ferry-shadow)"/>
  <rect x="20" y="20" width="160" height="260" rx="4" fill="url(#ferry-inner)" stroke="url(#ferry-gold)" stroke-width="1.5"/>

  <g transform="translate(100, 55)">
    <circle cx="0" cy="0" r="22" fill="none" stroke="url(#ferry-gold)" stroke-width="2"/>
    <circle cx="0" cy="0" r="15" fill="none" stroke="url(#ferry-gold)" stroke-width="1"/>
    <path d="M0 -22 L4 -4 L22 0 L4 4 L0 22 L-4 4 L-22 0 L-4 -4 Z" fill="url(#ferry-gold-light)"/>
    <circle cx="0" cy="0" r="7" fill="url(#ferry-green)" stroke="url(#ferry-gold)" stroke-width="2"/>
    <circle cx="0" cy="0" r="3.5" fill="url(#ferry-gold-light)"/>
  </g>

  <ellipse cx="100" cy="165" rx="65" ry="85" fill="url(#ferry-glow)"/>

  <g transform="translate(100, 170)">
    <circle cx="0" cy="0" r="68" fill="none" stroke="url(#ferry-gold)" stroke-width="3"/>
    <circle cx="0" cy="0" r="62" fill="none" stroke="url(#ferry-gold)" stroke-width="1" opacity="0.5"/>
    <g stroke="url(#ferry-gold)" stroke-width="2">
      <line x1="0" y1="-62" x2="0" y2="62"/>
      <line x1="-54" y1="-31" x2="54" y2="31"/>
      <line x1="-54" y1="31" x2="54" y2="-31"/>
    </g>
    <circle cx="0" cy="0" r="36" fill="url(#ferry-green)" stroke="url(#ferry-gold)" stroke-width="2.5"/>
    <circle cx="0" cy="0" r="30" fill="none" stroke="url(#ferry-gold)" stroke-width="1" opacity="0.5"/>
    <circle cx="0" cy="0" r="20" fill="none" stroke="url(#ferry-gold)" stroke-width="1.5"/>
    <g fill="url(#ferry-gold-light)">
      <path d="M0 -54 L-8 -42 L8 -42 Z"/>
      <path d="M47 -27 L39 -17 L49 -14 Z"/>
      <path d="M47 27 L49 14 L39 17 Z"/>
      <path d="M0 54 L-8 42 L8 42 Z"/>
      <path d="M-47 27 L-49 14 L-39 17 Z"/>
      <path d="M-47 -27 L-39 -17 L-49 -14 Z"/>
    </g>
    <circle cx="0" cy="-68" r="5" fill="url(#ferry-gold-light)"/>
    <circle cx="59" cy="-34" r="5" fill="url(#ferry-gold-light)"/>
    <circle cx="59" cy="34" r="5" fill="url(#ferry-gold-light)"/>
    <circle cx="0" cy="68" r="5" fill="url(#ferry-gold-light)"/>
    <circle cx="-59" cy="34" r="5" fill="url(#ferry-gold-light)"/>
    <circle cx="-59" cy="-34" r="5" fill="url(#ferry-gold-light)"/>
    <circle cx="0" cy="0" r="12" fill="url(#ferry-gold)"/>
    <circle cx="0" cy="0" r="8.5" fill="url(#ferry-gold-light)"/>
    <circle cx="0" cy="0" r="4.5" fill="#fff"/>
    <path d="M-26 -26 Q0 -36, 26 -26" fill="none" stroke="url(#ferry-gold)" stroke-width="1" opacity="0.6"/>
    <path d="M26 -26 Q36 0, 26 26" fill="none" stroke="url(#ferry-gold)" stroke-width="1" opacity="0.6"/>
    <path d="M26 26 Q0 36, -26 26" fill="none" stroke="url(#ferry-gold)" stroke-width="1" opacity="0.6"/>
    <path d="M-26 26 Q-36 0, -26 -26" fill="none" stroke="url(#ferry-gold)" stroke-width="1" opacity="0.6"/>
  </g>

  <text x="100" y="275" text-anchor="middle" fill="url(#ferry-gold-light)" font-size="20" font-family="Georgia, serif" font-weight="bold">X</text>
</svg>
